<?xml version="1.0" encoding="UTF-8"?>
<svg id="Layer_2" data-name="Layer 2" xmlns="http://www.w3.org/2000/svg" viewBox="0 0 100 96.2">
  <defs>
    <style>
      .cls-1 {
        fill: #3b82f6;
      }
    </style>
  </defs>
  <g id="Layer_1-2" data-name="Layer 1">
    <path class="cls-1" d="M37.88,96.2c-.75,0-1.5-.09-2.24-.25-5.42-1.23-8.83-6.65-7.59-12.07.51-2.24,1.78-4.26,3.58-5.68,1.77-1.4,3.99-2.17,6.24-2.17.75,0,1.51.08,2.24.25,5.42,1.23,8.83,6.65,7.59,12.07-.51,2.24-1.78,4.26-3.58,5.68-1.77,1.4-3.99,2.17-6.24,2.17h0ZM69.04,87.68c-2.66,0-5.13-1.19-6.78-3.26-1.45-1.81-2.1-4.08-1.84-6.38.26-2.3,1.4-4.37,3.21-5.81,1.53-1.22,3.45-1.9,5.41-1.9,2.66,0,5.13,1.19,6.78,3.26,2.99,3.74,2.37,9.21-1.37,12.19-1.53,1.22-3.45,1.9-5.41,1.9ZM12.89,77.68c-4.38,0-8.44-2.55-10.35-6.49-2.75-5.7-.35-12.58,5.35-15.33,1.57-.76,3.25-1.14,4.99-1.14,4.38,0,8.44,2.55,10.35,6.49,2.75,5.7.35,12.58-5.35,15.33-1.57.76-3.25,1.14-4.98,1.14h0ZM82.91,67.3c-9.43,0-17.09-7.67-17.09-17.09,0-3.1.84-6.13,2.43-8.78.52-.86.58-1.92.17-2.84-.41-.92-1.25-1.57-2.23-1.76-2.53-.47-4.93-1.57-6.93-3.17-2.74-2.19-4.62-5.14-5.45-8.55-.27-1.11-1.13-1.98-2.24-2.25-.25-.06-.49-.09-.74-.09-.86,0-1.7.37-2.29,1.03-1.97,2.22-4.56,3.75-7.49,4.42-1.05.24-2.11.36-3.18.36-2.97,0-5.94-.96-8.36-2.71-.54-.39-1.16-.58-1.79-.58-.66,0-1.33.22-1.88.65-1.07.84-1.47,2.28-.97,3.54,1.32,3.34,1.19,7.11-.37,10.34-2.14,4.43-6.69,7.29-11.61,7.29-1.95,0-3.83-.43-5.59-1.28C.88,42.73-1.81,35.01,1.28,28.62c2.14-4.43,6.69-7.29,11.61-7.29,1.95,0,3.83.43,5.59,1.28.58.28,1.15.61,1.68.97.52.36,1.13.53,1.73.53.69,0,1.38-.23,1.94-.69,1.05-.86,1.41-2.32.88-3.57-.33-.77-.59-1.58-.77-2.4-.85-3.72-.19-7.55,1.84-10.78,2.03-3.23,5.2-5.47,8.92-6.32,1.05-.24,2.11-.36,3.18-.36,3.19,0,6.33,1.09,8.84,3.07,2.33,1.83,4.06,4.42,4.88,7.28.31,1.09,1.21,1.92,2.33,2.15.21.04.41.06.62.06.91,0,1.78-.4,2.37-1.12,2.99-3.64,7.41-5.73,12.13-5.73,3.54,0,7.01,1.22,9.78,3.43,3.27,2.62,5.34,6.35,5.8,10.51.36,3.18-.24,6.33-1.74,9.12-.47.89-.48,1.95-.03,2.84.46.89,1.32,1.51,2.32,1.64,8.44,1.13,14.81,8.41,14.81,16.94,0,9.43-7.67,17.09-17.09,17.09Z"/>
  </g>
</svg>