<?xml version="1.0" encoding="UTF-8"?>
<svg id="Layer_2" data-name="Layer 2" xmlns="http://www.w3.org/2000/svg" viewBox="0 0 250 169.18">
  <defs>
    <style>
      .cls-1 {
        fill: #fff;
      }
    </style>
  </defs>
  <g id="Layer_1-2" data-name="Layer 1">
    <path class="cls-1" d="M248.53,116.09l-12-20.79h-.01c-5.89-10.21-12.33-21.37-18.98-32.87-10.92-18.93-22.4-38.81-32.9-56.99-4.18-7.24-14.62-7.24-18.8,0-8.75,15.16-21.43,37.12-28.21,48.86-2.09,3.62.53,8.13,4.7,8.13h26.55c3.88,0,7.47,2.07,9.41,5.44,3.91,6.78,7.72,13.37,11.14,19.3,2.09,3.62-.53,8.14-4.71,8.14h-64.53c-3.84,0-7.38,2.03-9.32,5.33l-7.62,13.19c-2.78,4.81-5.56,9.63-7.59,13.15-1.94,3.36-5.53,5.42-9.41,5.42h-27.77c-11.99,0-21.72-9.71-21.73-21.71l-.02-26.51c-.01-12,9.72-21.75,21.73-21.75h19.32c7.8,0,15,4.18,18.86,10.95l.04.07c1.93,3.36,5.52,5.42,9.41,5.42h17.35c8.35,0,13.57-9.03,9.4-16.26-.03-.05-.07-.12-.1-.17-2.76-4.77-5.8-10.05-8.71-15.08-7.77-13.45-22.11-21.73-37.63-21.73h-42.93C19.46,25.61.01,45.07,0,69.06v56.66c-.01,24,19.45,43.45,43.44,43.45h21.56c3.88,0,7.47-2.07,9.41-5.43l14.97-25.93c1.93-3.36,5.53-5.43,9.41-5.43h140.33c8.36,0,13.59-9.05,9.41-16.3Z"/>
  </g>
</svg>
